<svg width="13" height="16" viewBox="0 0 13 16" fill="none" xmlns="http://www.w3.org/2000/svg">
<path d="M11.8366 13.3677C10.2179 12.129 9.20623 10.2194 9.15564 8C9.15564 5.83226 10.2179 3.87097 11.8366 2.63226C12.1907 2.37419 12.5953 2.11613 13 1.90968C12.6459 1.6 12.2412 1.29032 11.8366 1.08387C10.6732 0.412903 9.30739 0 7.89105 0C3.54086 0 0.0505837 3.56129 0 7.94839V8V8.05161C0.0505837 12.4387 3.59144 16 7.89105 16C9.35798 16 10.6732 15.5871 11.8366 14.9161C12.2412 14.6581 12.6459 14.4 13 14.0903C12.5953 13.8839 12.1907 13.6258 11.8366 13.3677ZM7.84046 14.7097C4.19844 14.7097 1.26459 11.7161 1.21401 8C1.26459 4.28387 4.19844 1.29032 7.84046 1.29032C8.85214 1.29032 9.76264 1.49677 10.6226 1.90968C8.95331 3.35484 7.89105 5.52258 7.84046 7.94839V8V8.05161C7.89105 10.4774 8.95331 12.6452 10.6226 14.0903C9.81323 14.5032 8.85214 14.7097 7.84046 14.7097Z" fill="#C7D0B7"/>
</svg>
