<svg width="22" height="23" viewBox="0 0 22 23" fill="none" xmlns="http://www.w3.org/2000/svg">
<path d="M11.7347 0H10.2551V4.17436H11.7347V0Z" fill="#C7D0B7"/>
<path d="M6.68366 5.65065L5.81632 6.51607L5.66326 6.66879L2.70407 3.7162L3.72448 2.69806L6.68366 5.65065Z" fill="#C7D0B7"/>
<path d="M19.2347 3.7162L16.4286 6.51607L16.2755 6.66879L15.2551 5.65065L18.2143 2.69806L19.2347 3.7162Z" fill="#C7D0B7"/>
<path d="M21.9388 10.7413H17.7551V12.2176H21.9388V10.7413Z" fill="#C7D0B7"/>
<path d="M4.18368 10.7413H0V12.2176H4.18368V10.7413Z" fill="#C7D0B7"/>
<path d="M17.449 11.4031V11.1486C17.2959 7.68695 14.4388 4.98889 10.9694 4.98889C7.50001 4.98889 4.64287 7.73786 4.48981 11.1486V11.6577C4.64287 15.0684 7.50001 17.8174 10.9694 17.8174C14.4388 17.8174 17.2959 15.0684 17.449 11.6577V11.4031ZM10.9694 6.41428C13.7245 6.41428 15.9694 8.65418 16.0204 11.4031C16.0204 14.1521 13.7755 16.392 10.9694 16.392C8.2143 16.392 5.9694 14.1521 5.91838 11.4031C5.9694 8.65418 8.2143 6.41428 10.9694 6.41428Z" fill="#C7D0B7"/>
<path d="M11.7347 18.6319H10.2551V22.8572H11.7347V18.6319Z" fill="#C7D0B7"/>
<path d="M16.2745 16.1139L15.2309 17.1604L18.2329 20.1405L19.2764 19.094L16.2745 16.1139Z" fill="#C7D0B7"/>
<path d="M6.68366 17.2065L3.72448 20.1591L2.70407 19.141L5.51019 16.2902L5.66326 16.1375L6.68366 17.2065Z" fill="#C7D0B7"/>
</svg>
